<mxfile host="Electron" modified="2024-02-29T17:35:28.878Z" agent="Mozilla/5.0 (Windows NT 10.0; Win64; x64) AppleWebKit/537.36 (KHTML, like Gecko) draw.io/23.1.5 Chrome/120.0.6099.109 Electron/28.1.0 Safari/537.36" etag="eYp3jaKCdjc3mK5FEG0g" version="23.1.5" type="device">
  <diagram name="Page-1" id="oyefZyvbCmtk_aO8xllv">
    <mxGraphModel dx="2280" dy="830" grid="1" gridSize="10" guides="1" tooltips="1" connect="1" arrows="1" fold="1" page="1" pageScale="1" pageWidth="850" pageHeight="1100" math="0" shadow="0">
      <root>
        <mxCell id="0" />
        <mxCell id="1" parent="0" />
        <mxCell id="MegoHZjVP08y1ZtQDZGC-18" style="edgeStyle=orthogonalEdgeStyle;rounded=0;orthogonalLoop=1;jettySize=auto;html=1;entryX=0;entryY=0.5;entryDx=0;entryDy=0;" edge="1" parent="1" source="MegoHZjVP08y1ZtQDZGC-1" target="MegoHZjVP08y1ZtQDZGC-2">
          <mxGeometry relative="1" as="geometry" />
        </mxCell>
        <mxCell id="MegoHZjVP08y1ZtQDZGC-1" value="Login" style="rounded=0;whiteSpace=wrap;html=1;" vertex="1" parent="1">
          <mxGeometry x="-20" y="440" width="120" height="60" as="geometry" />
        </mxCell>
        <mxCell id="MegoHZjVP08y1ZtQDZGC-38" style="edgeStyle=orthogonalEdgeStyle;rounded=0;orthogonalLoop=1;jettySize=auto;html=1;entryX=0.5;entryY=1;entryDx=0;entryDy=0;" edge="1" parent="1" source="MegoHZjVP08y1ZtQDZGC-2" target="MegoHZjVP08y1ZtQDZGC-37">
          <mxGeometry relative="1" as="geometry" />
        </mxCell>
        <mxCell id="MegoHZjVP08y1ZtQDZGC-39" style="edgeStyle=orthogonalEdgeStyle;rounded=0;orthogonalLoop=1;jettySize=auto;html=1;entryX=0.5;entryY=0;entryDx=0;entryDy=0;" edge="1" parent="1" source="MegoHZjVP08y1ZtQDZGC-2" target="MegoHZjVP08y1ZtQDZGC-35">
          <mxGeometry relative="1" as="geometry" />
        </mxCell>
        <mxCell id="MegoHZjVP08y1ZtQDZGC-40" style="edgeStyle=orthogonalEdgeStyle;rounded=0;orthogonalLoop=1;jettySize=auto;html=1;entryX=0.5;entryY=0;entryDx=0;entryDy=0;" edge="1" parent="1" source="MegoHZjVP08y1ZtQDZGC-2" target="MegoHZjVP08y1ZtQDZGC-34">
          <mxGeometry relative="1" as="geometry" />
        </mxCell>
        <mxCell id="MegoHZjVP08y1ZtQDZGC-43" style="edgeStyle=orthogonalEdgeStyle;rounded=0;orthogonalLoop=1;jettySize=auto;html=1;entryX=0;entryY=0.5;entryDx=0;entryDy=0;" edge="1" parent="1" source="MegoHZjVP08y1ZtQDZGC-2" target="MegoHZjVP08y1ZtQDZGC-41">
          <mxGeometry relative="1" as="geometry" />
        </mxCell>
        <mxCell id="MegoHZjVP08y1ZtQDZGC-44" style="edgeStyle=orthogonalEdgeStyle;rounded=0;orthogonalLoop=1;jettySize=auto;html=1;entryX=0;entryY=0.5;entryDx=0;entryDy=0;" edge="1" parent="1" source="MegoHZjVP08y1ZtQDZGC-2" target="MegoHZjVP08y1ZtQDZGC-42">
          <mxGeometry relative="1" as="geometry" />
        </mxCell>
        <mxCell id="MegoHZjVP08y1ZtQDZGC-2" value="Monitoring" style="rounded=0;whiteSpace=wrap;html=1;" vertex="1" parent="1">
          <mxGeometry x="180" y="440" width="120" height="60" as="geometry" />
        </mxCell>
        <mxCell id="MegoHZjVP08y1ZtQDZGC-34" value="Select Station&amp;nbsp;" style="rounded=1;whiteSpace=wrap;html=1;arcSize=50;" vertex="1" parent="1">
          <mxGeometry x="260" y="540" width="120" height="60" as="geometry" />
        </mxCell>
        <mxCell id="MegoHZjVP08y1ZtQDZGC-35" value="Modify Production Parameter" style="rounded=1;whiteSpace=wrap;html=1;arcSize=50;" vertex="1" parent="1">
          <mxGeometry x="100" y="540" width="120" height="60" as="geometry" />
        </mxCell>
        <mxCell id="MegoHZjVP08y1ZtQDZGC-37" value="Full screen mode" style="rounded=1;whiteSpace=wrap;html=1;arcSize=50;" vertex="1" parent="1">
          <mxGeometry x="180" y="340" width="120" height="60" as="geometry" />
        </mxCell>
        <mxCell id="MegoHZjVP08y1ZtQDZGC-46" style="edgeStyle=orthogonalEdgeStyle;rounded=0;orthogonalLoop=1;jettySize=auto;html=1;entryX=0;entryY=0.5;entryDx=0;entryDy=0;" edge="1" parent="1" source="MegoHZjVP08y1ZtQDZGC-41" target="MegoHZjVP08y1ZtQDZGC-45">
          <mxGeometry relative="1" as="geometry">
            <mxPoint x="610" y="360" as="targetPoint" />
          </mxGeometry>
        </mxCell>
        <mxCell id="MegoHZjVP08y1ZtQDZGC-41" value="Alarm History" style="rounded=1;whiteSpace=wrap;html=1;arcSize=50;" vertex="1" parent="1">
          <mxGeometry x="440" y="360" width="120" height="60" as="geometry" />
        </mxCell>
        <mxCell id="MegoHZjVP08y1ZtQDZGC-48" style="edgeStyle=orthogonalEdgeStyle;rounded=0;orthogonalLoop=1;jettySize=auto;html=1;entryX=0;entryY=0.5;entryDx=0;entryDy=0;" edge="1" parent="1" source="MegoHZjVP08y1ZtQDZGC-42" target="MegoHZjVP08y1ZtQDZGC-47">
          <mxGeometry relative="1" as="geometry" />
        </mxCell>
        <mxCell id="MegoHZjVP08y1ZtQDZGC-42" value="Alarrm Configuration" style="rounded=1;whiteSpace=wrap;html=1;arcSize=50;" vertex="1" parent="1">
          <mxGeometry x="440" y="480" width="120" height="60" as="geometry" />
        </mxCell>
        <mxCell id="MegoHZjVP08y1ZtQDZGC-45" value="Alarm History list" style="rounded=0;whiteSpace=wrap;html=1;" vertex="1" parent="1">
          <mxGeometry x="640" y="360" width="120" height="60" as="geometry" />
        </mxCell>
        <mxCell id="MegoHZjVP08y1ZtQDZGC-50" style="edgeStyle=orthogonalEdgeStyle;rounded=0;orthogonalLoop=1;jettySize=auto;html=1;entryX=0;entryY=0.5;entryDx=0;entryDy=0;" edge="1" parent="1" source="MegoHZjVP08y1ZtQDZGC-47" target="MegoHZjVP08y1ZtQDZGC-49">
          <mxGeometry relative="1" as="geometry" />
        </mxCell>
        <mxCell id="MegoHZjVP08y1ZtQDZGC-54" style="edgeStyle=orthogonalEdgeStyle;rounded=0;orthogonalLoop=1;jettySize=auto;html=1;entryX=0;entryY=0.5;entryDx=0;entryDy=0;" edge="1" parent="1" source="MegoHZjVP08y1ZtQDZGC-47" target="MegoHZjVP08y1ZtQDZGC-53">
          <mxGeometry relative="1" as="geometry" />
        </mxCell>
        <mxCell id="MegoHZjVP08y1ZtQDZGC-59" style="edgeStyle=orthogonalEdgeStyle;rounded=0;orthogonalLoop=1;jettySize=auto;html=1;" edge="1" parent="1" source="MegoHZjVP08y1ZtQDZGC-47" target="MegoHZjVP08y1ZtQDZGC-58">
          <mxGeometry relative="1" as="geometry" />
        </mxCell>
        <mxCell id="MegoHZjVP08y1ZtQDZGC-60" style="edgeStyle=orthogonalEdgeStyle;rounded=0;orthogonalLoop=1;jettySize=auto;html=1;" edge="1" parent="1" source="MegoHZjVP08y1ZtQDZGC-47" target="MegoHZjVP08y1ZtQDZGC-57">
          <mxGeometry relative="1" as="geometry" />
        </mxCell>
        <mxCell id="MegoHZjVP08y1ZtQDZGC-47" value="Alarm Configuration list" style="rounded=0;whiteSpace=wrap;html=1;" vertex="1" parent="1">
          <mxGeometry x="640" y="480" width="120" height="60" as="geometry" />
        </mxCell>
        <mxCell id="MegoHZjVP08y1ZtQDZGC-52" style="edgeStyle=orthogonalEdgeStyle;rounded=0;orthogonalLoop=1;jettySize=auto;html=1;" edge="1" parent="1" source="MegoHZjVP08y1ZtQDZGC-49" target="MegoHZjVP08y1ZtQDZGC-51">
          <mxGeometry relative="1" as="geometry" />
        </mxCell>
        <mxCell id="MegoHZjVP08y1ZtQDZGC-49" value="Add Alarm Configuration" style="rounded=1;whiteSpace=wrap;html=1;arcSize=50;" vertex="1" parent="1">
          <mxGeometry x="840" y="410" width="120" height="60" as="geometry" />
        </mxCell>
        <mxCell id="MegoHZjVP08y1ZtQDZGC-51" value="Add Alarm Configuration Popup" style="rounded=0;whiteSpace=wrap;html=1;" vertex="1" parent="1">
          <mxGeometry x="1040" y="410" width="120" height="60" as="geometry" />
        </mxCell>
        <mxCell id="MegoHZjVP08y1ZtQDZGC-56" style="edgeStyle=orthogonalEdgeStyle;rounded=0;orthogonalLoop=1;jettySize=auto;html=1;entryX=0;entryY=0.5;entryDx=0;entryDy=0;" edge="1" parent="1" source="MegoHZjVP08y1ZtQDZGC-53" target="MegoHZjVP08y1ZtQDZGC-55">
          <mxGeometry relative="1" as="geometry" />
        </mxCell>
        <mxCell id="MegoHZjVP08y1ZtQDZGC-53" value="Add Alarm Configuration" style="rounded=1;whiteSpace=wrap;html=1;arcSize=50;" vertex="1" parent="1">
          <mxGeometry x="840" y="520" width="120" height="60" as="geometry" />
        </mxCell>
        <mxCell id="MegoHZjVP08y1ZtQDZGC-55" value="Modify Alarm Configuration Popup" style="rounded=0;whiteSpace=wrap;html=1;" vertex="1" parent="1">
          <mxGeometry x="1040" y="520" width="120" height="60" as="geometry" />
        </mxCell>
        <mxCell id="MegoHZjVP08y1ZtQDZGC-57" value="Create new by duplicating" style="rounded=1;whiteSpace=wrap;html=1;arcSize=50;" vertex="1" parent="1">
          <mxGeometry x="720" y="660" width="120" height="60" as="geometry" />
        </mxCell>
        <mxCell id="MegoHZjVP08y1ZtQDZGC-58" value="Disable Alarm Condition" style="rounded=1;whiteSpace=wrap;html=1;arcSize=50;" vertex="1" parent="1">
          <mxGeometry x="560" y="660" width="120" height="60" as="geometry" />
        </mxCell>
      </root>
    </mxGraphModel>
  </diagram>
</mxfile>
